<?xml version="1.0" encoding="UTF-8"?>
<svg id="Layer_1" xmlns="http://www.w3.org/2000/svg" version="1.1" viewBox="0 0 98 28">
  <!-- Generator: Adobe Illustrator 30.3.0, SVG Export Plug-In . SVG Version: 2.1.3 Build 182)  -->
  <defs>
    <style>
      .st0 {
        fill: #f8f4ff;
        font-family: Helvetica-Bold, Helvetica;
        font-size: 17px;
        font-weight: 700;
        isolation: isolate;
        letter-spacing: -.02em;
      }

      .st1 {
        fill: #a855f7;
      }

      .st2 {
        fill: #4c1d95;
      }

      .st3 {
        fill: #7c3aed;
      }
    </style>
  </defs>
  <path class="st2" d="M10.89,18.5h13c1.38,0,2.5,1.12,2.5,2.5h0c0,1.38-1.12,2.5-2.5,2.5h-13c-1.38,0-2.5-1.12-2.5-2.5h0c0-1.38,1.12-2.5,2.5-2.5Z"/>
  <path class="st3" d="M10.89,11.5h17c1.38,0,2.5,1.12,2.5,2.5h0c0,1.38-1.12,2.5-2.5,2.5H10.89c-1.38,0-2.5-1.12-2.5-2.5h0c0-1.38,1.12-2.5,2.5-2.5Z"/>
  <path class="st1" d="M10.89,4.5h13c1.38,0,2.5,1.12,2.5,2.5h0c0,1.38-1.12,2.5-2.5,2.5h-13c-1.38,0-2.5-1.12-2.5-2.5h0c0-1.38,1.12-2.5,2.5-2.5Z"/>
  <text class="st0" transform="translate(36.39 19.5)"><tspan x="0" y="0">Layers</tspan></text>
</svg>